<?xml version="1.0" encoding="UTF-8" standalone="no"?>
<!-- Created with Inkscape (http://www.inkscape.org/) -->

<svg
   xmlns:dc="http://purl.org/dc/elements/1.1/"
   xmlns:cc="http://creativecommons.org/ns#"
   xmlns:rdf="http://www.w3.org/1999/02/22-rdf-syntax-ns#"
   xmlns:svg="http://www.w3.org/2000/svg"
   xmlns="http://www.w3.org/2000/svg"
   xmlns:sodipodi="http://sodipodi.sourceforge.net/DTD/sodipodi-0.dtd"
   xmlns:inkscape="http://www.inkscape.org/namespaces/inkscape"
   width="34.924995mm"
   height="9.9853382mm"
   viewBox="0 0 34.924995 9.9853382"
   version="1.1"
   id="svg3907"
   inkscape:version="0.92.4 (5da689c313, 2019-01-14)"
   sodipodi:docname="logo-primary.svg">
  <defs
     id="defs3901" />
  <sodipodi:namedview
     id="base"
     pagecolor="#ffffff"
     bordercolor="#666666"
     borderopacity="1.0"
     inkscape:pageopacity="0.0"
     inkscape:pageshadow="2"
     inkscape:zoom="5.3560613"
     inkscape:cx="64.902174"
     inkscape:cy="-2.1250965"
     inkscape:document-units="mm"
     inkscape:current-layer="layer1"
     showgrid="false"
     fit-margin-top="0"
     fit-margin-left="0"
     fit-margin-right="0"
     fit-margin-bottom="0"
     inkscape:window-width="1920"
     inkscape:window-height="1019"
     inkscape:window-x="0"
     inkscape:window-y="24"
     inkscape:window-maximized="1" />
  <metadata
     id="metadata3904">
    <rdf:RDF>
      <cc:Work
         rdf:about="">
        <dc:format>image/svg+xml</dc:format>
        <dc:type
           rdf:resource="http://purl.org/dc/dcmitype/StillImage" />
        <dc:title></dc:title>
      </cc:Work>
    </rdf:RDF>
  </metadata>
  <g
     inkscape:label="Layer 1"
     inkscape:groupmode="layer"
     id="layer1"
     transform="translate(-78.381253,-11.48474)">
    <g
       transform="matrix(0.04346554,0,0,0.04346554,65.239447,4.7236752)"
       style="clip-rule:evenodd;fill-rule:evenodd;image-rendering:optimizeQuality;shape-rendering:geometricPrecision;text-rendering:geometricPrecision"
       id="g3880">
      <path
         style="fill:#003b83;fill-rule:nonzero"
         inkscape:connector-curvature="0"
         id="path2482"
         d="m 359.73,320.01 c -0.61,-4.15 -2.17,-7.17 -4.67,-9.07 -2.51,-1.9 -6.32,-2.84 -11.46,-2.84 -4.89,0 -8.59,0.58 -11.09,1.74 -2.51,1.16 -3.76,3.15 -3.76,5.95 0,2.45 1.25,4.41 3.76,5.88 2.5,1.46 6.14,2.87 10.91,4.21 7.82,2.2 14.42,4.07 19.8,5.59 5.38,1.53 9.68,3.33 12.92,5.41 3.24,2.08 5.56,4.68 6.97,7.79 1.4,3.12 2.11,7.31 2.11,12.56 0,8.07 -3.37,14.76 -10.08,20.07 -6.73,5.32 -16.69,7.98 -29.89,7.98 -6.48,0 -12.35,-0.73 -17.6,-2.2 -5.26,-1.46 -9.75,-3.57 -13.47,-6.32 -3.74,-2.75 -6.61,-6.05 -8.63,-9.9 -2.01,-3.85 -3.08,-8.16 -3.2,-12.93 h 24.56 c 0,4.28 1.68,7.58 5.05,9.9 3.36,2.32 7.73,3.48 13.11,3.48 4.52,0 8.4,-0.69 11.64,-2.1 3.23,-1.41 4.86,-3.58 4.86,-6.51 0,-3.3 -1.2,-5.68 -3.58,-7.15 -2.38,-1.47 -6.02,-2.75 -10.91,-3.85 -8.8,-1.96 -15.89,-4 -21.26,-6.14 -5.38,-2.14 -9.57,-4.5 -12.56,-7.06 -3,-2.57 -5.01,-5.38 -6.05,-8.44 -1.04,-3.05 -1.56,-6.47 -1.56,-10.27 0,-3.42 0.7,-6.66 2.11,-9.71 1.4,-3.05 3.63,-5.75 6.69,-8.06 3.05,-2.33 7.03,-4.19 11.91,-5.6 4.89,-1.41 10.88,-2.11 17.97,-2.11 12.96,0 22.43,2.63 28.42,7.88 5.99,5.26 9.29,12.54 9.9,21.82 z"
         class="fil13" />
      <polygon
         style="fill:#003b83;fill-rule:nonzero"
         id="polygon2484"
         points="395.12,283.6 395.12,261.41 418.95,261.41 418.95,283.6 "
         class="fil13" />
      <polygon
         style="fill:#003b83;fill-rule:nonzero"
         id="polygon2486"
         points="395.12,384.62 395.12,294.42 418.95,294.42 418.95,384.62 "
         class="fil13" />
      <path
         style="fill:#003b83;fill-rule:nonzero"
         inkscape:connector-curvature="0"
         id="path2488"
         d="m 538.31,382.9 v -54.64 c 0,-5.5 -1.29,-9.96 -3.85,-13.38 -2.57,-3.42 -6,-5.13 -10.27,-5.13 -4.4,0 -8.04,1.83 -10.91,5.5 -2.87,3.66 -4.31,8.25 -4.31,13.75 v 53.9 h -23.83 v -54.27 c 0,-3.67 -0.25,-6.66 -0.73,-8.98 -0.5,-2.32 -1.32,-4.16 -2.48,-5.5 -1.16,-1.35 -2.66,-2.29 -4.49,-2.85 -1.83,-0.55 -4.04,-0.82 -6.6,-0.82 -9.66,0 -14.49,5.87 -14.49,17.6 v 54.82 h -23.83 v -90.2 h 22.37 v 13.2 c 3.05,-5.99 6.72,-10.09 11,-12.29 4.27,-2.2 9.41,-3.3 15.4,-3.3 3.05,0 5.77,0.25 8.16,0.74 2.38,0.48 4.52,1.31 6.41,2.47 1.9,1.17 3.7,2.66 5.41,4.5 1.71,1.83 3.42,4.02 5.14,6.59 2.44,-5.01 5.68,-8.64 9.71,-10.91 4.04,-2.26 8.92,-3.39 14.67,-3.39 4.52,0 8.68,0.77 12.47,2.29 3.78,1.53 7.03,3.67 9.72,6.42 2.68,2.75 4.79,5.96 6.32,9.63 1.53,3.66 2.29,7.57 2.29,11.73 v 62.52 z"
         class="fil13" />
      <path
         style="fill:#003b83;fill-rule:nonzero"
         inkscape:connector-curvature="0"
         id="path2490"
         d="m 596.8,344.03 c 0.37,6.85 2.35,12.29 5.96,16.32 3.6,4.03 8.34,6.05 14.21,6.05 3.91,0 7.36,-0.89 10.36,-2.66 2.99,-1.77 4.91,-4.25 5.77,-7.42 h 24.57 c -2.82,9.28 -7.7,16.44 -14.67,21.45 -6.96,5.01 -15.28,7.51 -24.93,7.51 -30.07,0 -45.11,-16.37 -45.11,-49.13 0,-6.97 0.98,-13.27 2.94,-18.89 1.95,-5.62 4.79,-10.44 8.52,-14.48 3.73,-4.03 8.28,-7.12 13.66,-9.26 5.38,-2.14 11.55,-3.21 18.52,-3.21 13.93,0 24.48,4.46 31.62,13.39 7.16,8.92 10.73,22.36 10.73,40.33 z M 634.38,329 v 0 c -0.12,-3.3 -0.7,-6.21 -1.74,-8.71 -1.04,-2.5 -2.41,-4.59 -4.12,-6.23 -1.71,-1.65 -3.67,-2.88 -5.87,-3.67 -2.2,-0.79 -4.46,-1.19 -6.78,-1.19 -4.77,0 -8.9,1.74 -12.38,5.22 -3.48,3.49 -5.47,8.34 -5.96,14.58 z"
         class="fil13" />
      <path
         style="fill:#003b83;fill-rule:nonzero"
         inkscape:connector-curvature="0"
         id="path2492"
         d="m 720.92,323.5 h 22.18 v 25.67 c 0,4.76 -0.7,9.32 -2.1,13.65 -1.41,4.34 -3.61,8.19 -6.61,11.56 -2.99,3.35 -6.78,6.01 -11.36,7.97 -4.59,1.96 -10.06,2.93 -16.41,2.93 -6.6,0 -12.23,-0.97 -16.87,-2.93 -4.64,-1.96 -8.47,-4.58 -11.46,-7.88 -2.99,-3.31 -5.16,-7.16 -6.5,-11.55 -1.35,-4.41 -2.02,-9.05 -2.02,-13.94 v -80.67 h 23.47 v 24.39 h 49.86 v 16.86 h -49.86 v 37.04 c 0,5.75 1.07,10.17 3.2,13.29 2.14,3.12 5.65,4.68 10.55,4.68 4.76,0 8.27,-1.53 10.54,-4.59 2.26,-3.05 3.39,-7.39 3.39,-13.01 z"
         class="fil13" />
      <path
         style="fill:#003b83;fill-rule:nonzero"
         inkscape:connector-curvature="0"
         id="path2494"
         d="m 755.2,382.9 v -90.2 h 22.37 v 10.81 c 1.96,-3.05 4,-5.43 6.14,-7.15 2.14,-1.71 4.34,-3.02 6.6,-3.94 2.26,-0.91 4.56,-1.49 6.88,-1.74 2.32,-0.25 4.7,-0.37 7.15,-0.37 h 3.12 v 24.39 c -2.21,-0.37 -4.4,-0.55 -6.61,-0.55 -14.54,0 -21.81,7.27 -21.81,21.81 v 46.94 z"
         class="fil13" />
      <polygon
         style="fill:#003b83;fill-rule:nonzero"
         id="polygon2496"
         points="816.99,382.9 816.99,292.7 840.82,292.7 840.82,382.9 "
         class="fil13" />
      <polygon
         style="fill:#003b83;fill-rule:nonzero"
         id="polygon2498"
         points="909.76,382.9 889.96,342.38 878.41,354.3 878.41,382.9 854.39,382.9 854.39,292.7 878.41,292.7 878.41,326.98 908.11,292.7 937.26,292.7 907,325.88 936.52,382.9 "
         class="fil13" />
      <polygon
         style="fill:#003b83"
         id="polygon2500"
         points="994.78,214.44 976.24,214.44 976.24,231.7 994.78,231.7 994.78,227.03 1082.98,227.03 1096.71,267.14 840.45,267.14 840.45,259.7 816.99,259.7 816.99,281.88 840.45,281.88 840.45,275.07 1095.52,275.07 1082.98,311.69 994.78,311.69 994.78,307.04 976.24,307.04 976.24,324.28 994.78,324.28 994.78,319.62 1080.27,319.62 1062.8,370.6 959.88,370.6 959.88,365.94 941.34,365.94 941.34,383.19 959.88,383.19 959.88,378.53 1068.47,378.53 1105.86,269.38 1068.47,160.21 959.88,160.21 959.88,155.55 941.34,155.55 941.34,172.81 959.88,172.81 959.88,168.14 1062.8,168.14 1080.26,219.1 994.78,219.1 "
         class="fil1" />
    </g>
  </g>
</svg>
